<?xml version="1.0" standalone="no"?><!DOCTYPE svg PUBLIC "-//W3C//DTD SVG 1.1//EN" "http://www.w3.org/Graphics/SVG/1.1/DTD/svg11.dtd"><svg t="1711517304105" class="icon" viewBox="0 0 1024 1024" version="1.1" xmlns="http://www.w3.org/2000/svg" p-id="1513" xmlns:xlink="http://www.w3.org/1999/xlink" width="200" height="200"><path d="M742.7 530.1c-40.5 27-89 42.7-141.1 42.7-52 0-100.3-15.6-140.7-42.3-109.3 52.8-184.8 165.1-184.8 295.1 0 137.5 651.9 135.6 651.9 0-0.1-130.3-75.7-242.8-185.3-295.5m-360.2-214c0-121.5 98-220.1 219.1-220.1 121 0 219.1 98.5 219.1 220.1s-98.1 220-219.1 220c-121.1 0.1-219.1-98.4-219.1-220M237.5 837c0 5 0.8 9.8 2.3 14.5C157.5 838.3 96 812.2 96 773c0-112.5 65.3-209.7 159.9-255.4 33 21.9 72.3 35.2 114.7 36.6-81.3 67.1-133.1 168.9-133.1 282.8M346 316.1c0-55.9 17.8-107.6 48-149.7-5.3-0.5-10.6-0.7-15.9-0.7-99.6 0-180.4 81.1-180.4 181.2S278.4 528.1 378 528.1c22.4 0 43.9-4.1 63.6-11.7-58.2-47-95.6-119.2-95.6-200.3m0 0" fill="#737478" p-id="1514"></path></svg>