<?xml version="1.0" standalone="no"?><!DOCTYPE svg PUBLIC "-//W3C//DTD SVG 1.1//EN" "http://www.w3.org/Graphics/SVG/1.1/DTD/svg11.dtd"><svg t="1711365852978" class="icon" viewBox="0 0 1024 1024" version="1.1" xmlns="http://www.w3.org/2000/svg" p-id="2560" xmlns:xlink="http://www.w3.org/1999/xlink" width="200" height="200"><path d="M498.643478 287.165217c0 4.452174 4.452174 11.130435 11.130435 11.130435 4.452174 0 11.130435-4.452174 11.130435-11.130435v-28.93913h31.165217c4.452174 0 11.130435-4.452174 11.130435-11.130435 0-4.452174-4.452174-11.130435-11.130435-11.130435h-31.165217V204.8c0-4.452174-4.452174-11.130435-11.130435-11.130435-4.452174 0-11.130435 4.452174-11.130435 11.130435v31.165217H467.478261c-4.452174 0-11.130435 4.452174-11.130435 11.130435 0 4.452174 4.452174 11.130435 11.130435 11.130435h31.165217v28.93913z" fill="" p-id="2561"></path><path d="M632.208696 527.582609c37.843478-40.069565 57.878261-86.817391 66.782608-140.243479-62.330435-17.808696-126.886957-26.713043-189.217391-26.713043-66.782609-2.226087-129.113043 4.452174-193.669565 20.034783 4.452174 55.652174 31.165217 104.626087 69.008695 146.921739 0 0 80.13913 53.426087 124.66087 51.2 46.747826 0 91.269565-17.808696 122.434783-51.2zM507.547826 322.782609c66.782609-2.226087 131.33913 4.452174 198.121739 24.486956v-24.486956c-2.226087-55.652174-24.486957-111.304348-55.652174-158.052174-46.747826-13.356522-95.721739-17.808696-142.469565-17.808696s-95.721739 8.904348-142.469565 20.034783c-33.391304 44.521739-55.652174 100.173913-55.652174 158.052174l2.226087 20.034782c66.782609-15.582609 131.33913-22.26087 195.895652-22.260869zM458.573913 244.869565c0-4.452174 4.452174-11.130435 11.130435-11.130435h31.165217V202.573913c0-4.452174 4.452174-11.130435 11.130435-11.130435 4.452174 0 11.130435 4.452174 11.130435 11.130435v31.165217h31.165217c4.452174 0 11.130435 4.452174 11.130435 11.130435 0 4.452174-4.452174 11.130435-11.130435 11.130435h-31.165217v28.93913c0 4.452174-4.452174 11.130435-11.130435 11.130435-4.452174 0-11.130435-4.452174-11.130435-11.130435v-31.165217H467.478261c-4.452174 2.226087-8.904348-4.452174-8.904348-8.904348z" fill="#FFFFFF" p-id="2562"></path><path d="M618.852174 578.782609c82.365217-57.878261 126.886957-158.052174 117.982609-258.226087-2.226087-69.008696-28.93913-131.33913-66.782609-186.991305a520.94887 520.94887 0 0 0-329.46087 0c-46.747826 51.2-71.234783 115.756522-73.460869 184.765218-11.130435 102.4 33.391304 200.347826 115.756522 260.452174-151.373913 44.521739-264.904348 173.634783-278.26087 329.460869h792.486956c-11.130435-153.6-124.66087-282.713043-278.260869-329.460869zM309.426087 322.782609c0-57.878261 17.808696-113.530435 55.652174-158.052174 46.747826-13.356522 95.721739-20.034783 142.469565-20.034783s95.721739 8.904348 142.469565 17.808696c31.165217 46.747826 51.2 100.173913 55.652174 158.052174v24.486956c-62.330435-15.582609-131.33913-24.486957-198.121739-24.486956s-129.113043 4.452174-195.895652 20.034782l-2.226087-17.808695z m75.686956 207.026087c-37.843478-40.069565-60.104348-93.495652-69.008695-146.921739 62.330435-15.582609 126.886957-20.034783 193.669565-20.034783 62.330435 0 129.113043 8.904348 189.217391 26.713043-8.904348 53.426087-28.93913 100.173913-66.782608 140.243479-31.165217 31.165217-80.13913 48.973913-124.66087 48.973913-44.521739 0-122.434783-48.973913-122.434783-48.973913z" fill="#040000" p-id="2563"></path></svg>