<?xml version="1.0" standalone="no"?><!DOCTYPE svg PUBLIC "-//W3C//DTD SVG 1.1//EN" "http://www.w3.org/Graphics/SVG/1.1/DTD/svg11.dtd"><svg t="1710228765739" class="icon" viewBox="0 0 1024 1024" version="1.1" xmlns="http://www.w3.org/2000/svg" p-id="5923" xmlns:xlink="http://www.w3.org/1999/xlink" width="200" height="200"><path d="M295.663213 175.842623h-29.104262C221.316197 175.842623 184.655738 204.993049 184.655738 240.944262v723.886164h654.688524V240.942164c0-35.951213-36.673049-65.097443-81.901114-65.097443z m0 0" fill="#E0EBFC" p-id="5924"></path><path d="M839.344262 973.219672H184.655738c-4.631082 0-8.393443-3.760262-8.393443-8.393442V240.944262c0-40.523541 40.508852-73.490885 90.294557-73.490885H757.445246c49.794098 0 90.302951 32.965246 90.302951 73.490885v723.886164a8.406033 8.406033 0 0 1-8.401836 8.393443z m-646.295082-16.786885h637.90164V240.944262c0-31.26977-32.975738-56.704-73.507672-56.704H266.554754C226.024918 184.236066 193.04918 209.680787 193.04918 240.942164z m0 0" fill="#3762CC" p-id="5925"></path><path d="M851.934426 217.809836H163.672131a16.786885 16.786885 0 0 1-16.786885-16.786885v-46.163935a16.786885 16.786885 0 0 1 16.786885-16.786885h688.262295a16.786885 16.786885 0 0 1 16.786885 16.786885v46.163935a16.786885 16.786885 0 0 1-16.786885 16.786885z m0 0" fill="#4671C6" p-id="5926"></path><path d="M849.017705 773.812459H166.588852c-10.875803 0-19.703607-8.829902-19.703606-19.714098v-2.549509a19.703607 19.703607 0 0 1 19.703606-19.703606h682.428853c10.875803 0 19.703607 8.81941 19.703606 19.703606v2.549509c0 10.886295-8.81941 19.714098-19.703606 19.714098z m0 0" fill="#F9A7A7" p-id="5927"></path><path d="M849.017705 782.205902H166.588852c-15.490098 0-28.097049-12.606951-28.097049-28.107541v-2.549509c0-15.492197 12.606951-28.097049 28.097049-28.097049h682.428853c15.490098 0 28.097049 12.604852 28.097049 28.097049v2.549509c0 15.50059-12.606951 28.107541-28.097049 28.107541z m-682.428853-41.967213a11.329049 11.329049 0 0 0-11.310163 11.310163v2.549509a11.324852 11.324852 0 0 0 11.310163 11.320655h682.428853a11.331148 11.331148 0 0 0 11.310164-11.320655v-2.549509a11.322754 11.322754 0 0 0-11.310164-11.310163z m0 0" fill="#3762CC" p-id="5928"></path><path d="M388.574426 784.367213h246.851148v180.459017H388.574426z m0 0" fill="#A4C9FF" p-id="5929"></path><path d="M601.851803 826.334426v138.491804h-179.703606v-138.491804z m0 0" fill="#4671C6" p-id="5930"></path><path d="M651.467541 784.228721h-278.935082A15.809049 15.809049 0 0 1 356.721311 768.419672v-31.181639a15.817443 15.817443 0 0 1 15.811148-15.817443h278.926689a15.811148 15.811148 0 0 1 15.811147 15.819541v31.181639a15.798557 15.798557 0 0 1-15.802754 15.80905z m0 0" fill="#A4C9FF" p-id="5931"></path><path d="M998.819672 1015.186885H25.180328a16.786885 16.786885 0 0 1-16.786885-16.786885v-16.786885a16.786885 16.786885 0 0 1 16.786885-16.786885h973.639344a16.786885 16.786885 0 0 1 16.786885 16.786885v16.786885a16.786885 16.786885 0 0 1-16.786885 16.786885z m0 0" fill="#6BDDDD" p-id="5932"></path><path d="M635.425574 973.219672H388.574426c-4.631082 0-8.393443-3.760262-8.393442-8.393442v-180.459017c0-4.628984 3.762361-8.393443 8.393442-8.393443h246.851148c4.631082 0 8.393443 3.764459 8.393442 8.393443v180.459017c0 4.641574-3.753967 8.393443-8.393442 8.393442z m-238.457705-16.786885h230.064262v-163.672131H396.967869z m0 0" fill="#3762CC" p-id="5933"></path><path d="M601.851803 973.219672h-179.703606c-4.631082 0-8.393443-3.760262-8.393443-8.393442v-138.491804c0-4.628984 3.762361-8.393443 8.393443-8.393442h179.703606c4.631082 0 8.393443 3.764459 8.393443 8.393442v138.491804c0 4.641574-3.753967 8.393443-8.393443 8.393442z m-171.310164-16.786885h162.916722v-121.704918h-162.916722z m0 0" fill="#3762CC" p-id="5934"></path><path d="M666.859016 163.252459c0 85.527082-69.334033 154.863213-154.859016 154.863213s-154.859016-69.336131-154.859016-154.861115S426.472918 8.393443 512 8.393443s154.859016 69.336131 154.859016 154.859016z m0 0" fill="#F9CFCF" p-id="5935"></path><path d="M512 326.509115c-90.015475 0-163.252459-73.239082-163.252459-163.254558C348.747541 73.22859 421.982426 0 512 0s163.252459 73.236984 163.252459 163.252459c0 90.019672-73.236984 163.256656-163.252459 163.256656zM512 16.786885c-80.761705 0-146.465574 65.705967-146.465574 146.465574s65.703869 146.46977 146.465574 146.469771 146.465574-65.705967 146.465574-146.467673S592.763803 16.786885 512 16.786885z m0 0M998.819672 1023.580328H25.180328c-13.884852 0-25.180328-11.293377-25.180328-25.180328v-16.786885c0-13.882754 11.295475-25.180328 25.180328-25.180328h973.639344c13.884852 0 25.180328 11.297574 25.180328 25.180328v16.786885c0 13.886951-11.295475 25.180328-25.180328 25.180328z m-973.639344-50.360656c-4.631082 0-8.393443 3.764459-8.393443 8.393443v16.786885c0 4.63318 3.762361 8.393443 8.393443 8.393443h973.639344c4.631082 0 8.393443-3.760262 8.393443-8.393443v-16.786885c0-4.628984-3.762361-8.393443-8.393443-8.393443z m0 0" fill="#3762CC" p-id="5936"></path><path d="M763.803279 473.809836h-58.754099c-13.910033 0-25.180328-11.268197-25.180328-25.180328v-58.754098c0-13.907934 11.270295-25.180328 25.180328-25.180328h58.754099c13.910033 0 25.180328 11.272393 25.180328 25.180328v58.754098c0 13.912131-11.270295 25.180328-25.180328 25.180328z m0 0" fill="#A4C9FF" p-id="5937"></path><path d="M763.803279 482.203279h-58.754099c-18.507541 0-33.57377-15.064131-33.57377-33.573771v-58.754098c0-18.513836 15.06623-33.57377 33.57377-33.573771h58.754099c18.507541 0 33.57377 15.059934 33.57377 33.573771v58.754098c0 18.509639-15.06623 33.57377-33.57377 33.573771z m-58.754099-109.114754c-9.25377 0-16.786885 7.52682-16.786885 16.786885v58.754098c0 9.25377 7.533115 16.786885 16.786885 16.786885h58.754099c9.25377 0 16.786885-7.533115 16.786885-16.786885v-58.754098c0-9.260066-7.533115-16.786885-16.786885-16.786885z m0 0" fill="#3762CC" p-id="5938"></path><path d="M763.803279 666.859016h-58.754099c-13.910033 0-25.180328-11.268197-25.180328-25.180327v-58.754099c0-13.907934 11.270295-25.180328 25.180328-25.180328h58.754099c13.910033 0 25.180328 11.272393 25.180328 25.180328v58.754099c0 13.912131-11.270295 25.180328-25.180328 25.180327z m0 0M763.803279 918.662295h-58.754099c-13.910033 0-25.180328-11.268197-25.180328-25.180328v-58.754098c0-13.907934 11.270295-25.180328 25.180328-25.180328h58.754099c13.910033 0 25.180328 11.272393 25.180328 25.180328v58.754098c0 13.912131-11.270295 25.180328-25.180328 25.180328z m0 0" fill="#A4C9FF" p-id="5939"></path><path d="M763.803279 666.859016h-58.754099c-18.507541 0-33.57377-15.064131-33.57377-33.57377v-58.754098c0-18.513836 15.06623-33.57377 33.57377-33.573771h58.754099c18.507541 0 33.57377 15.059934 33.57377 33.573771v58.754098c0 18.509639-15.06623 33.57377-33.57377 33.57377z m-58.754099-109.114754c-9.25377 0-16.786885 7.52682-16.786885 16.786886v58.754098c0 9.25377 7.533115 16.786885 16.786885 16.786885h58.754099c9.25377 0 16.786885-7.533115 16.786885-16.786885v-58.754098c0-9.260066-7.533115-16.786885-16.786885-16.786886z m0 0M763.803279 927.055738h-58.754099c-18.507541 0-33.57377-15.064131-33.57377-33.573771v-58.754098c0-18.513836 15.06623-33.57377 33.57377-33.573771h58.754099c18.507541 0 33.57377 15.059934 33.57377 33.573771v58.754098c0 18.509639-15.06623 33.57377-33.57377 33.573771z m-58.754099-109.114754c-9.25377 0-16.786885 7.52682-16.786885 16.786885v58.754098c0 9.25377 7.533115 16.786885 16.786885 16.786885h58.754099c9.25377 0 16.786885-7.533115 16.786885-16.786885v-58.754098c0-9.260066-7.533115-16.786885-16.786885-16.786885z m0 0" fill="#3762CC" p-id="5940"></path><path d="M318.95082 473.809836h-58.754099c-13.910033 0-25.180328-11.268197-25.180328-25.180328v-58.754098c0-13.907934 11.270295-25.180328 25.180328-25.180328h58.754099c13.910033 0 25.180328 11.272393 25.180328 25.180328v58.754098c0 13.912131-11.270295 25.180328-25.180328 25.180328z m0 0" fill="#A4C9FF" p-id="5941"></path><path d="M318.95082 482.203279h-58.754099c-18.507541 0-33.57377-15.064131-33.57377-33.573771v-58.754098c0-18.513836 15.06623-33.57377 33.57377-33.573771h58.754099c18.507541 0 33.57377 15.059934 33.57377 33.573771v58.754098c0 18.509639-15.06623 33.57377-33.57377 33.573771z m-58.754099-109.114754c-9.25377 0-16.786885 7.52682-16.786885 16.786885v58.754098c0 9.25377 7.533115 16.786885 16.786885 16.786885h58.754099c9.25377 0 16.786885-7.533115 16.786885-16.786885v-58.754098c0-9.260066-7.533115-16.786885-16.786885-16.786885z m0 0" fill="#3762CC" p-id="5942"></path><path d="M318.95082 658.465574h-58.754099c-13.910033 0-25.180328-11.268197-25.180328-25.180328v-58.754098c0-13.907934 11.270295-25.180328 25.180328-25.180328h58.754099c13.910033 0 25.180328 11.272393 25.180328 25.180328v58.754098c0 13.912131-11.270295 25.180328-25.180328 25.180328z m0 0M318.95082 918.662295h-58.754099c-13.910033 0-25.180328-11.268197-25.180328-25.180328v-58.754098c0-13.907934 11.270295-25.180328 25.180328-25.180328h58.754099c13.910033 0 25.180328 11.272393 25.180328 25.180328v58.754098c0 13.912131-11.270295 25.180328-25.180328 25.180328z m0 0" fill="#A4C9FF" p-id="5943"></path><path d="M318.95082 666.859016h-58.754099c-18.507541 0-33.57377-15.064131-33.57377-33.57377v-58.754098c0-18.513836 15.06623-33.57377 33.57377-33.573771h58.754099c18.507541 0 33.57377 15.059934 33.57377 33.573771v58.754098c0 18.509639-15.06623 33.57377-33.57377 33.57377z m-58.754099-109.114754c-9.25377 0-16.786885 7.52682-16.786885 16.786886v58.754098c0 9.25377 7.533115 16.786885 16.786885 16.786885h58.754099c9.25377 0 16.786885-7.533115 16.786885-16.786885v-58.754098c0-9.260066-7.533115-16.786885-16.786885-16.786886z m0 0M318.95082 927.055738h-58.754099c-18.507541 0-33.57377-15.064131-33.57377-33.573771v-58.754098c0-18.513836 15.06623-33.57377 33.57377-33.573771h58.754099c18.507541 0 33.57377 15.059934 33.57377 33.573771v58.754098c0 18.509639-15.06623 33.57377-33.57377 33.573771z m-58.754099-109.114754c-9.25377 0-16.786885 7.52682-16.786885 16.786885v58.754098c0 9.25377 7.533115 16.786885 16.786885 16.786885h58.754099c9.25377 0 16.786885-7.533115 16.786885-16.786885v-58.754098c0-9.260066-7.533115-16.786885-16.786885-16.786885z m0 0M651.457049 792.622164H372.542951c-13.353967 0-24.215082-10.859016-24.215082-24.20459v-31.187935c0-13.351869 10.861115-24.20459 24.215082-24.20459h278.92459c13.345574 0 24.212984 10.852721 24.212984 24.20459v31.187935c-0.008393 13.345574-10.869508 24.20459-24.221377 24.20459z m-278.914098-62.81023a7.434492 7.434492 0 0 0-7.428197 7.417705v31.187935a7.428197 7.428197 0 0 0 7.428197 7.417705h278.92459c4.091803 0 7.426098-3.328 7.426098-7.417705v-31.187935c0-4.091803-3.336393-7.417705-7.428196-7.417705z m0 0" fill="#3762CC" p-id="5944"></path><path d="M602.294557 473.809836H421.707541c-12.713967 0-23.016918-10.309246-23.016918-23.023213V387.714098c0-12.716066 10.302951-23.019016 23.016918-23.019016h180.589115c12.713967 0 23.016918 10.302951 23.016918 23.019016v63.072525c0 12.713967-10.302951 23.025311-23.016918 23.025311z m0 0" fill="#A4C9FF" p-id="5945"></path><path d="M602.294557 482.203279H421.707541c-17.319869 0-31.410361-14.088393-31.410361-31.416656V387.714098c0-17.319869 14.090492-31.412459 31.410361-31.412459h180.589115c17.319869 0 31.410361 14.09259 31.41036 31.412459v63.072525c0 17.328262-14.090492 31.418754-31.41036 31.418754z m-180.589114-109.114754c-8.057705 0-14.623475 6.559475-14.623476 14.625573v63.072525c0 8.074492 6.557377 14.631869 14.623476 14.631869h180.589114c8.057705 0 14.623475-6.557377 14.623476-14.631869V387.714098c0-8.057705-6.557377-14.625574-14.623476-14.625573z m0 0" fill="#3762CC" p-id="5946"></path><path d="M585.862295 571.433967h-32.707147a10.076328 10.076328 0 0 1-10.072132-10.072131v-32.705049c0-5.558557-4.509377-10.07423-10.065836-10.07423h-42.03436a10.082623 10.082623 0 0 0-10.072131 10.072132v32.705049a10.072131 10.072131 0 0 1-10.07423 10.074229H438.137705a10.072131 10.072131 0 0 0-10.07423 10.07423v42.023869a10.072131 10.072131 0 0 0 10.072132 10.074229h32.707147c5.556459 0 10.072131 4.515672 10.072131 10.072131v32.707148c0 5.556459 4.509377 10.072131 10.065836 10.072131h42.034361c5.556459 0 10.072131-4.515672 10.072131-10.072131v-32.705049c0-5.558557 4.509377-10.072131 10.07423-10.072132h32.705049c5.558557 0 10.072131-4.511475 10.072131-10.076327v-42.023869a10.082623 10.082623 0 0 0-10.080525-10.072131z m0 0" fill="#F9A7A7" p-id="5947"></path><path d="M585.862295 571.433967h-32.707147a10.076328 10.076328 0 0 1-10.072132-10.072131v-32.705049c0-5.558557-4.509377-10.07423-10.065836-10.07423h-42.03436a10.082623 10.082623 0 0 0-10.072131 10.072132v32.705049a10.072131 10.072131 0 0 1-10.07423 10.074229H438.137705a10.072131 10.072131 0 0 0-10.07423 10.07423v42.023869a10.072131 10.072131 0 0 0 10.072132 10.074229h32.707147c5.556459 0 10.072131 4.515672 10.072131 10.072131v32.707148c0 5.556459 4.509377 10.072131 10.065836 10.072131h42.034361c5.556459 0 10.072131-4.515672 10.072131-10.072131v-32.705049c0-5.558557 4.509377-10.072131 10.07423-10.072132h32.705049c5.558557 0 10.072131-4.511475 10.072131-10.076327v-42.023869a10.082623 10.082623 0 0 0-10.080525-10.072131z m0 0" fill="#F9A7A7" p-id="5948"></path><path d="M419.630164 170.328131h-0.598033c-15.876197 0-28.745443-12.869246-28.745442-28.747541v-16.507803c0-15.876197 12.869246-28.745443 28.747541-28.745443h0.595934c15.869902 0 28.739148 12.869246 28.739147 28.747541v16.507804c0 15.876197-12.869246 28.745443-28.739147 28.745442z m0 0M604.369836 170.328131h0.598033c15.876197 0 28.745443-12.869246 28.745442-28.747541v-16.507803c0-15.876197-12.869246-28.745443-28.747541-28.745443h-0.595934c-15.869902 0-28.739148 12.869246-28.739147 28.747541v16.507804c0 15.876197 12.869246 28.745443 28.739147 28.745442z m0 0M475.205246 117.361311h-0.598033c-15.869902 0-28.739148-12.869246-28.739147-28.747541v-16.507803c0-15.876197 12.869246-28.745443 28.739147-28.745442h0.598033c15.876197 0 28.737049 12.869246 28.737049 28.747541v16.505704c0 15.878295-12.860852 28.747541-28.737049 28.747541z m0 0M547.231475 117.361311h0.595935c15.869902 0 28.739148-12.869246 28.739147-28.747541v-16.507803c0-15.876197-12.869246-28.745443-28.739147-28.745442h-0.598033c-15.876197 0-28.737049 12.869246-28.737049 28.747541v16.505704c0 15.878295 12.860852 28.747541 28.737049 28.747541z m0 0M569.05023 174.025443c-2.574689-0.64-4.354098-2.795016-4.354099-5.262689 0-26.959738-23.58977-48.812066-52.696131-48.812065-29.097967 0-52.696131 21.852328-52.696131 48.812065 0 2.467672-1.77941 4.622689-4.354099 5.262689-22.211148 5.497705-38.572066 24.252852-38.572065 46.564721v1.187672c0 26.624 23.302295 48.205639 52.039344 48.205639h87.165902c28.737049 0 52.039344-21.581639 52.039344-48.205639v-1.187672c0-22.311869-16.360918-41.064918-38.574164-46.564721z m0 0" fill="#4671C6" p-id="5949"></path></svg>