<?xml version="1.0" standalone="no"?><!DOCTYPE svg PUBLIC "-//W3C//DTD SVG 1.1//EN" "http://www.w3.org/Graphics/SVG/1.1/DTD/svg11.dtd"><svg height="700" node-id="1" sillyvg="true" template-height="700" template-width="600" version="1.1" viewBox="0 0 600 700" width="600" xmlns="http://www.w3.org/2000/svg" xmlns:xlink="http://www.w3.org/1999/xlink"><defs node-id="148"><linearGradient gradientTransform="matrix(0.01484236 1.0432 -1.0213 0.07769725 1233.3816 -1313.0432)" gradientUnits="userSpaceOnUse" id="SVGID_5_" node-id="21" spreadMethod="pad" x1="1658.7867" x2="1678.9481" y1="1055.8002" y2="1055.8002"><stop offset="0" stop-color="#f4bf1d"></stop><stop offset="1" stop-color="#f29718"></stop></linearGradient><linearGradient gradientTransform="matrix(-0.6809 0.5282 -0.5655 -0.7291 2150.3909 -633.7283)" gradientUnits="userSpaceOnUse" id="SVGID_7_" node-id="25" spreadMethod="pad" x1="2604.696" x2="2647.5898" y1="298.5178" y2="298.5178"><stop offset="0" stop-color="#f4bf1d"></stop><stop offset="1" stop-color="#f29718"></stop></linearGradient><linearGradient gradientUnits="userSpaceOnUse" id="SVGID_9_" node-id="45" spreadMethod="pad" x1="272.0672" x2="308.1065" y1="404.1955" y2="404.1955"><stop offset="0" stop-color="#a35f23"></stop><stop offset="1" stop-color="#f29718"></stop></linearGradient><linearGradient gradientUnits="userSpaceOnUse" id="SVGID_11_" node-id="51" spreadMethod="pad" x1="253.0585" x2="338.3351" y1="512.5394" y2="512.5394"><stop offset="0" stop-color="#4370b5"></stop><stop offset="1" stop-color="#2b5497"></stop></linearGradient><linearGradient gradientUnits="userSpaceOnUse" id="SVGID_13_" node-id="80" spreadMethod="pad" x1="206.352" x2="236.3862" y1="366.7514" y2="366.7514"><stop offset="0" stop-color="#dbb8a1"></stop><stop offset="0.998" stop-color="#e8762a"></stop></linearGradient><linearGradient gradientTransform="matrix(-1 0 0 -1 1122 -5124)" gradientUnits="userSpaceOnUse" id="SVGID_15_" node-id="84" spreadMethod="pad" x1="739.6299" x2="769.5024" y1="-5453.3735" y2="-5453.3735"><stop offset="0" stop-color="#dbb8a1"></stop><stop offset="0.998" stop-color="#e8762a"></stop></linearGradient><linearGradient gradientUnits="userSpaceOnUse" id="SVGID_17_" node-id="93" spreadMethod="pad" x1="292.1157" x2="292.1157" y1="340.2152" y2="318.5318"><stop offset="0" stop-color="#ee7c28"></stop><stop offset="0.131" stop-color="#ed7f2d"></stop><stop offset="0.2805" stop-color="#ec863b"></stop><stop offset="0.4392" stop-color="#ea9251"></stop><stop offset="0.6043" stop-color="#e6a371"></stop><stop offset="0.7743" stop-color="#e2b99b"></stop><stop offset="0.946" stop-color="#ddd4cc"></stop><stop offset="0.9955" stop-color="#dbdcdc"></stop></linearGradient><linearGradient gradientUnits="userSpaceOnUse" id="SVGID_19_" node-id="126" spreadMethod="pad" x1="404.2561" x2="424.4175" y1="328.6644" y2="328.6644"><stop offset="0" stop-color="#f4bf1d"></stop><stop offset="1" stop-color="#f29718"></stop></linearGradient><linearGradient gradientUnits="userSpaceOnUse" id="SVGID_21_" node-id="130" spreadMethod="pad" x1="419.9197" x2="462.8133" y1="352.4269" y2="352.4269"><stop offset="0" stop-color="#f4bf1d"></stop><stop offset="1" stop-color="#f29718"></stop></linearGradient><clipPath id="SVGID_1_" node-id="9"><path d="M 1060.50 -592.90 C 1056.70 -594.00 1054.20 -600.90 1053.00 -613.70 C 1043.70 -621.00 1039.70 -626.40 1041.00 -630.10 C 1042.30 -633.80 1048.90 -635.60 1060.80 -635.50 C 1066.40 -644.30 1071.10 -648.10 1074.90 -647.00 C 1078.80 -645.90 1081.50 -639.90 1083.00 -629.00 C 1093.70 -623.00 1098.20 -617.90 1096.60 -613.80 C 1095.00 -609.70 1088.30 -607.30 1076.50 -606.80 C 1069.70 -596.50 1064.30 -591.80 1060.50 -592.90 Z" fill="#000000" fill-rule="nonzero" node-id="217" stroke="none" target-height="56.299988" target-width="58.5" target-x="1039.7" target-y="-648.1"></path></clipPath><clipPath id="SVGID_23_" node-id="139"><path d="M 2609.00 1127.40 C 2606.10 1126.60 2604.20 1121.30 2603.20 1111.50 C 2596.10 1105.90 2593.10 1101.80 2594.10 1099.00 C 2595.10 1096.20 2600.20 1094.80 2609.20 1094.80 C 2613.50 1088.10 2617.10 1085.20 2620.00 1086.00 C 2623.00 1086.90 2625.00 1091.40 2626.20 1099.80 C 2634.30 1104.40 2637.80 1108.30 2636.60 1111.40 C 2635.40 1114.50 2630.30 1116.30 2621.30 1116.80 C 2615.90 1124.70 2611.80 1128.30 2609.00 1127.40 Z" fill="#000000" fill-rule="nonzero" node-id="221" stroke="none" target-height="43.100098" target-width="44.69995" target-x="2593.1" target-y="1085.2"></path></clipPath></defs><g node-id="504"><g node-id="507"><g node-id="518"><path d="M 1060.50 -592.90 C 1056.70 -594.00 1054.20 -600.90 1053.00 -613.70 C 1043.70 -621.00 1039.70 -626.40 1041.00 -630.10 C 1042.30 -633.80 1048.90 -635.60 1060.80 -635.50 C 1066.40 -644.30 1071.10 -648.10 1074.90 -647.00 C 1078.80 -645.90 1081.50 -639.90 1083.00 -629.00 C 1093.70 -623.00 1098.20 -617.90 1096.60 -613.80 C 1095.00 -609.70 1088.30 -607.30 1076.50 -606.80 C 1069.70 -596.50 1064.30 -591.80 1060.50 -592.90 Z" fill="#f2d435" fill-rule="evenodd" group-id="1,4,15" node-id="231" stroke="none" target-height="56.299988" target-width="58.5" target-x="1039.7" target-y="-648.1"></path></g><g clip-path="url(#SVGID_1_)" group-id="1,4,16" node-id="238"><path d="M -2252.68 6733.64 L 131.30 -1420.82 L 1359.84 -1061.65 L -1024.14 7092.81 Z" fill="#f2d435" fill-rule="nonzero" group-id="1,4,16,39,49" node-id="240" stroke="none" target-height="8513.629" target-width="3612.522" target-x="-2252.6816" target-y="-1420.823"></path></g></g></g><g node-id="505"><path d="M 264.00 596.30 C 264.00 596.30 266.40 602.90 262.10 606.50 C 262.10 606.50 244.90 610.60 244.50 623.10 C 244.50 623.10 243.30 641.40 257.80 638.90 L 262.80 638.20 C 262.80 638.20 280.20 635.10 285.20 630.80 C 285.20 630.80 292.30 624.50 304.70 625.60 C 304.70 625.60 315.30 623.10 314.00 614.10 C 314.00 614.10 313.60 610.60 312.20 604.80 C 312.20 604.80 306.70 596.30 306.00 591.40 L 304.60 585.60 L 264.00 596.30 Z" fill="#f3b016" fill-rule="nonzero" group-id="2" node-id="249" stroke="none" target-height="55.80005" target-width="71.999985" target-x="243.3" target-y="585.6"></path><path d="M 388.60 551.40 C 388.60 551.40 392.30 557.40 397.60 556.50 C 397.60 556.50 410.70 546.30 420.60 553.80 C 420.60 553.80 435.40 564.40 425.10 573.70 L 421.70 577.00 C 421.70 577.00 409.20 588.00 403.00 589.00 C 403.00 589.00 394.00 590.30 387.70 600.30 C 387.70 600.30 379.60 606.60 373.40 600.00 C 373.40 600.00 370.90 597.50 367.20 592.80 C 367.20 592.80 363.80 583.40 360.50 579.70 L 356.80 575.00 L 388.60 551.40 Z" fill="#f3b016" fill-rule="nonzero" group-id="2" node-id="251" stroke="none" target-height="60.299988" target-width="78.600006" target-x="356.8" target-y="546.3"></path><g node-id="508"><path d="M 174.60 517.70 C 169.10 514.00 167.10 507.50 170.00 503.20 C 172.90 498.90 179.70 498.40 185.20 502.10 C 190.70 505.80 192.70 512.30 189.80 516.60 C 186.80 520.90 180.00 521.40 174.60 517.70 Z" fill="url(#SVGID_5_)" fill-rule="nonzero" group-id="2,5" node-id="255" stroke="none" target-height="23.00003" target-width="25.59999" target-x="167.1" target-y="498.4"></path><path d="M 174.60 517.20 L 174.60 517.20 C 184.20 509.70 198.10 511.50 205.50 521.10 L 210.40 527.50 C 217.90 537.10 216.10 551.00 206.50 558.40 L 206.50 558.40 C 200.00 563.50 190.60 562.30 185.60 555.80 L 172.00 538.20 C 166.90 531.70 168.10 522.30 174.60 517.20 Z" fill="url(#SVGID_7_)" fill-rule="nonzero" group-id="2,5" node-id="257" stroke="none" target-height="53.799988" target-width="51" target-x="166.9" target-y="509.7"></path></g><g node-id="509"><path d="M 314.30 521.60 L 218.70 556.90 C 213.30 558.90 207.30 556.10 205.30 550.70 L 177.80 476.00 C 175.80 470.60 178.60 464.60 184.00 462.60 L 279.60 427.30 C 285.00 425.30 291.00 428.10 293.00 433.50 L 320.60 508.20 C 322.50 513.60 319.70 519.60 314.30 521.60 Z" fill="#bb805e" fill-rule="nonzero" group-id="2,6" node-id="262" stroke="#cd9a81" stroke-linecap="butt" stroke-width="2" target-height="133.60004" target-width="146.7" target-x="175.8" target-y="425.3"></path><g node-id="520"><path d="M 185.96 472.35 L 284.37 436.02 L 312.52 512.29 L 214.12 548.62 Z" fill="#fbe3d3" fill-rule="nonzero" group-id="2,6,17" node-id="266" stroke="none" target-height="112.59442" target-width="126.56085" target-x="185.9609" target-y="436.02466"></path></g><g node-id="521"><path d="M 197.14 475.83 L 203.52 473.48 L 215.64 506.31 L 209.26 508.66 Z" fill="#f2cbb1" fill-rule="nonzero" group-id="2,6,18" node-id="271" stroke="none" target-height="35.188293" target-width="18.499603" target-x="197.13858" target-y="473.47632"></path></g><g node-id="522"><path d="M 210.41 511.93 L 216.79 509.58 L 219.76 517.65 L 213.39 520.00 Z" fill="#f2cbb1" fill-rule="nonzero" group-id="2,6,19" node-id="276" stroke="none" target-height="10.422455" target-width="9.357269" target-x="210.4072" target-y="509.57852"></path></g><g node-id="523"><path d="M 214.85 523.98 L 221.23 521.62 L 226.94 537.10 L 220.56 539.46 Z" fill="#f2cbb1" fill-rule="nonzero" group-id="2,6,20" node-id="281" stroke="none" target-height="17.833557" target-width="12.093018" target-x="214.84824" target-y="521.6225"></path></g><g node-id="524"><path d="M 213.92 472.87 L 220.30 470.52 L 221.48 473.71 L 215.10 476.06 Z" fill="#f2cbb1" fill-rule="nonzero" group-id="2,6,21" node-id="286" stroke="none" target-height="5.5443726" target-width="7.5565186" target-x="213.92012" target-y="470.51593"></path></g><g node-id="525"><path d="M 216.51 479.76 L 222.89 477.40 L 224.06 480.59 L 217.68 482.95 Z" fill="#f2cbb1" fill-rule="nonzero" group-id="2,6,22" node-id="291" stroke="none" target-height="5.5443726" target-width="7.556488" target-x="216.50653" target-y="477.4034"></path></g><g node-id="526"><path d="M 219.21 487.28 L 225.59 484.93 L 226.77 488.12 L 220.39 490.47 Z" fill="#f2cbb1" fill-rule="nonzero" group-id="2,6,23" node-id="296" stroke="none" target-height="5.544342" target-width="7.556488" target-x="219.21136" target-y="484.92657"></path></g><g node-id="527"><path d="M 221.58 493.50 L 227.96 491.14 L 242.98 531.86 L 236.61 534.21 Z" fill="#f2cbb1" fill-rule="nonzero" group-id="2,6,24" node-id="301" stroke="none" target-height="43.06842" target-width="21.408508" target-x="221.576" target-y="491.14178"></path></g><path d="M 259.90 475.40 C 259.90 482.75 253.95 488.70 246.60 488.70 C 239.25 488.70 233.30 482.75 233.30 475.40 C 233.30 468.05 239.25 462.10 246.60 462.10 C 253.95 462.10 259.90 468.05 259.90 475.40 Z" fill="#dca683" fill-rule="nonzero" group-id="2,6" node-id="304" stroke="#b67e5d" stroke-linecap="butt" stroke-width="1" target-height="26.600006" target-width="26.59999" target-x="233.3" target-y="462.1"></path></g><g node-id="510"><path d="M 245.50 509.90 L 356.50 493.60 C 356.50 493.60 388.50 538.20 393.30 552.80 C 393.30 552.80 382.70 573.80 355.90 580.00 C 355.90 580.00 344.30 579.00 331.30 553.70 C 331.30 553.70 325.80 543.90 323.60 535.70 C 323.60 535.70 317.10 539.00 302.80 538.40 C 302.80 538.40 308.10 562.80 308.20 591.30 C 308.20 591.30 289.70 602.00 262.10 597.10 C 262.10 597.10 256.70 594.20 253.00 580.30 C 253.00 580.30 246.00 559.90 245.90 543.70 C 245.90 543.70 243.40 517.60 245.50 509.90 Z" fill="#444c67" fill-rule="nonzero" group-id="2,7" node-id="309" stroke="none" target-height="108.399994" target-width="149.9" target-x="243.4" target-y="493.6"></path><g node-id="528"><path d="M 281.50 534.10 C 281.50 534.10 318.80 541.30 338.00 525.70 C 338.00 525.70 337.90 532.20 317.50 537.10 C 317.50 537.00 293.20 540.50 281.50 534.10 Z" fill="#2f3147" fill-opacity="0.5" fill-rule="nonzero" group-id="2,7,25" node-id="313" stroke="none" target-height="15.599976" target-width="56.5" target-x="281.5" target-y="525.7"></path></g></g><g node-id="511"><g node-id="529"><path d="M 308.10 397.60 C 308.10 404.60 299.70 411.40 289.80 411.40 C 280.50 411.40 272.90 406.50 272.00 400.10 C 276.90 400.10 282.00 399.80 287.30 399.60 C 294.40 399.30 301.60 397.80 308.00 397.10 C 308.10 397.20 308.10 397.40 308.10 397.60 Z" fill="url(#SVGID_9_)" fill-rule="nonzero" group-id="2,8,26" node-id="321" stroke="none" target-height="14.299988" target-width="36.100006" target-x="272" target-y="397.1"></path><path d="M 269.70 400.00 L 272.10 400.00 C 272.10 400.00 275.40 411.40 288.40 410.90 C 288.40 410.90 304.00 412.90 308.10 397.00 L 311.40 397.00 C 311.40 397.00 306.50 434.40 319.10 465.90 C 319.10 465.90 334.60 506.40 339.50 510.20 C 339.50 510.20 327.80 519.70 289.60 523.00 C 289.60 523.00 252.80 526.20 241.30 509.70 C 241.30 509.70 237.90 507.80 237.00 497.60 C 237.00 497.60 237.50 492.50 244.80 491.60 C 244.80 491.60 251.40 450.20 254.00 441.20 C 254.10 441.30 267.00 402.50 269.70 400.00 Z" fill="#5883c3" fill-rule="nonzero" group-id="2,8,26" node-id="323" stroke="none" target-height="129.20001" target-width="102.5" target-x="237" target-y="397"></path></g><g node-id="530"><path d="M 253.70 491.10 C 253.70 491.10 280.30 500.90 319.00 494.00 C 319.00 494.00 307.70 508.40 286.40 509.10 C 286.30 509.10 268.00 509.60 253.70 491.10 Z" fill="#4a73b2" fill-opacity="0.47" fill-rule="nonzero" group-id="2,8,27" node-id="328" stroke="none" target-height="18.5" target-width="65.3" target-x="253.7" target-y="491.1"></path></g><path d="M 253.10 514.30 C 253.10 514.30 303.10 525.20 334.20 503.80 L 338.40 510.40 C 338.30 510.50 289.80 531.80 253.10 514.30 Z" fill="url(#SVGID_11_)" fill-opacity="0.45" fill-rule="nonzero" group-id="2,8,28" node-id="333" stroke="none" target-height="28" target-width="85.29999" target-x="253.1" target-y="503.8"></path></g><g node-id="512"><path d="M 264.30 401.50 L 271.10 401.50 C 271.10 401.50 249.30 444.90 246.60 493.10 C 246.60 493.10 238.40 494.20 237.80 501.60 C 237.80 501.60 236.50 507.10 244.60 513.70 C 244.60 513.70 244.20 558.40 247.90 569.60 L 217.90 585.50 C 217.90 585.60 220.10 461.40 264.30 401.50 Z" fill="#e2dfcf" fill-rule="nonzero" group-id="2,9" node-id="339" stroke="none" target-height="184.09998" target-width="53.200012" target-x="217.9" target-y="401.5"></path><path d="M 265.10 400.20 C 265.10 400.20 218.40 435.60 207.40 453.30 L 245.00 440.70 C 244.90 440.70 262.00 404.70 265.10 400.20 Z" fill="#e2dfcf" fill-rule="nonzero" group-id="2,9" node-id="341" stroke="none" target-height="53.099976" target-width="57.700012" target-x="207.4" target-y="400.2"></path></g><g node-id="513"><path d="M 465.60 514.60 C 465.60 514.60 472.50 510.60 475.20 502.20 C 477.90 493.80 477.20 488.80 476.10 484.10 C 476.10 484.10 473.50 474.70 461.90 467.50 C 461.90 467.50 448.10 459.10 428.60 463.30 C 428.60 463.30 411.90 467.10 403.20 471.60 C 403.20 471.60 387.60 479.50 377.90 487.20 L 381.70 492.30 L 388.50 496.70 L 395.80 492.30 C 395.80 492.30 412.30 480.60 426.30 478.00 C 426.30 478.00 442.50 474.40 451.30 480.90 C 451.30 480.90 457.70 486.80 456.20 495.50 L 456.30 507.20 L 465.60 514.60 Z" fill="#f3b41c" fill-rule="nonzero" group-id="2,10" node-id="346" stroke="none" target-height="55.49997" target-width="100" target-x="377.9" target-y="459.1"></path><path d="M 464.10 506.20 C 464.10 506.20 465.10 492.60 447.50 498.90 C 447.50 498.90 437.20 503.50 439.80 515.90 C 439.80 515.90 441.20 527.40 443.00 532.00 C 443.00 532.00 444.30 535.10 444.40 538.10 C 444.40 538.10 458.20 532.30 463.50 532.00 C 463.50 532.00 472.60 531.70 477.00 521.80 C 481.50 511.80 473.90 508.10 473.90 508.10 C 473.90 508.10 472.70 506.30 464.10 506.20 Z" fill="#802d1f" fill-rule="nonzero" group-id="2,10" node-id="348" stroke="none" target-height="45.49997" target-width="44.299988" target-x="437.2" target-y="492.6"></path></g><g node-id="514"><path d="M 213.20 161.50 C 213.20 161.50 196.50 156.40 170.60 196.90 C 144.70 237.40 141.30 276.90 141.30 276.90 C 141.30 276.90 120.60 385.00 232.10 398.20 C 343.60 411.50 393.70 379.90 393.70 379.90 C 393.70 379.90 419.70 367.90 430.70 337.30 C 441.70 306.70 434.30 276.30 434.30 276.30 C 434.30 276.30 428.20 226.50 391.70 174.90 C 391.70 174.90 374.60 149.40 366.90 172.30 L 362.00 181.00 C 362.00 181.00 334.70 142.40 312.70 138.10 C 312.70 138.10 283.80 133.00 226.70 187.90 C 226.70 187.90 227.50 162.80 213.20 161.50 Z" fill="#923d23" fill-rule="nonzero" group-id="2,11" node-id="353" stroke="none" target-height="278.5" target-width="321.1" target-x="120.6" target-y="133"></path><g node-id="532"><path d="M 407.50 244.20 C 407.50 263.14 391.92 278.50 372.70 278.50 C 353.48 278.50 337.90 263.14 337.90 244.20 C 337.90 225.26 353.48 209.90 372.70 209.90 C 391.92 209.90 407.50 225.26 407.50 244.20 Z" fill="#f4c31c" fill-rule="nonzero" group-id="2,11,29" node-id="357" stroke="none" target-height="68.600006" target-width="69.600006" target-x="337.9" target-y="209.9"></path><path d="M 385.90 253.00 C 385.90 263.94 376.90 272.80 365.80 272.80 C 354.70 272.80 345.70 263.94 345.70 253.00 C 345.70 242.06 354.70 233.20 365.80 233.20 C 376.90 233.20 385.90 242.06 385.90 253.00 Z" fill="#ea772d" fill-rule="nonzero" group-id="2,11,29" node-id="359" stroke="none" target-height="39.59999" target-width="40.19998" target-x="345.7" target-y="233.2"></path></g><g node-id="533"><path d="M 241.20 245.20 C 241.20 264.14 225.62 279.50 206.40 279.50 C 187.18 279.50 171.60 264.14 171.60 245.20 C 171.60 226.26 187.18 210.90 206.40 210.90 C 225.62 210.90 241.20 226.26 241.20 245.20 Z" fill="#f4c31c" fill-rule="nonzero" group-id="2,11,30" node-id="364" stroke="none" target-height="68.600006" target-width="69.59999" target-x="171.6" target-y="210.9"></path><path d="M 233.40 254.00 C 233.40 264.94 224.40 273.80 213.30 273.80 C 202.20 273.80 193.20 264.94 193.20 254.00 C 193.20 243.06 202.20 234.20 213.30 234.20 C 224.40 234.20 233.40 243.06 233.40 254.00 Z" fill="#ea772d" fill-rule="nonzero" group-id="2,11,30" node-id="366" stroke="none" target-height="39.59999" target-width="40.199997" target-x="193.2" target-y="234.2"></path></g><path d="M 394.20 313.90 C 394.20 330.00 390.50 349.00 380.50 361.10 C 362.60 382.60 329.10 391.80 291.80 391.80 C 260.30 391.80 220.10 386.00 200.80 369.10 C 184.50 354.90 183.50 334.30 183.50 313.90 C 183.50 269.20 230.70 233.00 288.80 233.00 C 346.90 233.00 394.20 269.30 394.20 313.90 Z" fill="#f4cf25" fill-rule="nonzero" group-id="2,11" node-id="369" stroke="none" target-height="158.79999" target-width="210.70001" target-x="183.5" target-y="233"></path><path d="M 341.90 356.70 C 347.00 345.50 360.20 340.60 371.40 345.70 C 377.20 348.30 381.30 353.10 383.20 358.70 C 383.20 358.80 383.20 358.90 383.30 358.90 C 392.00 346.80 395.30 329.00 395.30 313.90 C 395.30 269.20 348.10 233.00 290.00 233.00 C 231.90 233.00 184.70 269.20 184.70 313.90 C 184.70 332.70 185.60 351.50 198.30 365.50 C 199.90 354.80 209.20 346.60 220.30 346.60 C 232.60 346.60 242.60 356.60 242.60 368.90 C 242.60 375.30 239.90 381.00 235.70 385.00 C 253.90 389.80 274.90 391.80 293.10 391.80 C 313.30 391.80 332.30 389.10 348.50 383.20 C 340.50 377.00 337.60 366.10 341.90 356.70 Z" fill="#f4cf25" fill-rule="nonzero" group-id="2,11" node-id="371" stroke="none" target-height="158.79999" target-width="210.59999" target-x="184.7" target-y="233"></path><path d="M 267.90 222.80 C 267.90 222.80 248.60 235.60 259.40 260.80 C 270.20 286.10 294.40 277.80 294.40 277.80 C 294.40 277.80 300.90 275.80 303.40 269.00 C 303.40 269.00 327.20 271.80 327.70 253.50 C 327.70 253.50 330.00 236.20 312.70 226.20 C 295.40 216.20 276.70 215.80 267.90 222.80 Z" fill="#9d4424" fill-rule="nonzero" group-id="2,11" node-id="373" stroke="none" target-height="70.3" target-width="81.399994" target-x="248.6" target-y="215.8"></path><path d="M 244.42 287.46 L 246.75 288.22 L 248.67 289.26 L 250.27 290.60 L 251.34 292.05 L 251.92 293.64 L 251.87 295.22 L 251.22 296.67 L 250.01 297.85 L 248.42 298.68 L 246.39 299.19 L 244.20 299.29 L 241.78 298.96 L 239.46 298.21 L 237.54 297.16 L 235.93 295.82 L 234.86 294.38 L 234.29 292.78 L 234.33 291.20 L 234.98 289.76 L 236.19 288.57 L 237.79 287.74 L 239.81 287.23 L 242.00 287.13 L 244.42 287.46 Z" fill="#803b20" fill-rule="nonzero" group-id="2,11,31,40" node-id="379" stroke="none" target-height="12.1651" target-width="17.625244" target-x="234.28993" target-y="287.1291"></path><path d="M 329.28 283.27 L 329.39 284.85 L 328.87 286.46 L 327.86 287.95 L 326.31 289.35 L 324.43 290.47 L 322.13 291.31 L 319.73 291.73 L 317.54 291.72 L 315.49 291.28 L 313.87 290.51 L 312.61 289.37 L 311.91 287.96 L 311.81 286.38 L 312.32 284.76 L 313.33 283.28 L 314.88 281.88 L 316.77 280.76 L 319.06 279.92 L 321.46 279.49 L 323.65 279.51 L 325.70 279.94 L 327.32 280.71 L 328.58 281.85 L 329.28 283.27 Z" fill="#803b20" fill-rule="nonzero" group-id="2,11,31,41" node-id="384" stroke="none" target-height="12.239655" target-width="17.579712" target-x="311.80536" target-y="279.49335"></path><path d="M 258.50 331.70 C 258.50 345.40 249.28 356.50 237.90 356.50 C 226.52 356.50 217.30 345.40 217.30 331.70 C 217.30 318.00 226.52 306.90 237.90 306.90 C 249.28 306.90 258.50 318.00 258.50 331.70 Z" fill="#ffffff" fill-rule="nonzero" group-id="2,11,31,42" node-id="389" stroke="none" target-height="49.600006" target-width="41.199997" target-x="217.3" target-y="306.9"></path><path d="M 256.30 332.50 C 256.30 343.10 249.76 351.70 241.70 351.70 C 233.64 351.70 227.10 343.10 227.10 332.50 C 227.10 321.90 233.64 313.30 241.70 313.30 C 249.76 313.30 256.30 321.90 256.30 332.50 Z" fill="#803b20" fill-rule="nonzero" group-id="2,11,31,42" node-id="391" stroke="none" target-height="38.400024" target-width="29.199982" target-x="227.1" target-y="313.3"></path><path d="M 240.20 322.30 C 240.20 325.61 237.51 328.30 234.20 328.30 C 230.89 328.30 228.20 325.61 228.20 322.30 C 228.20 318.99 230.89 316.30 234.20 316.30 C 237.51 316.30 240.20 318.99 240.20 322.30 Z" fill="#ffffff" fill-rule="nonzero" group-id="2,11,31,42" node-id="393" stroke="none" target-height="12" target-width="12" target-x="228.2" target-y="316.3"></path><path d="M 250.50 340.40 C 250.50 342.33 249.74 343.90 248.80 343.90 C 247.86 343.90 247.10 342.33 247.10 340.40 C 247.10 338.47 247.86 336.90 248.80 336.90 C 249.74 336.90 250.50 338.47 250.50 340.40 Z" fill="#ffffff" fill-rule="nonzero" group-id="2,11,31,42" node-id="395" stroke="none" target-height="7" target-width="3.399994" target-x="247.1" target-y="336.9"></path><path d="M 236.40 366.80 C 236.40 371.60 229.68 375.50 221.40 375.50 C 213.12 375.50 206.40 371.60 206.40 366.80 C 206.40 362.00 213.12 358.10 221.40 358.10 C 229.68 358.10 236.40 362.00 236.40 366.80 Z" fill="url(#SVGID_13_)" fill-rule="nonzero" group-id="2,11" node-id="399" stroke="none" target-height="17.399994" target-width="30" target-x="206.4" target-y="358.1"></path><path d="M 382.30 329.40 C 382.30 334.20 375.63 338.10 367.40 338.10 C 359.17 338.10 352.50 334.20 352.50 329.40 C 352.50 324.60 359.17 320.70 367.40 320.70 C 375.63 320.70 382.30 324.60 382.30 329.40 Z" fill="url(#SVGID_15_)" fill-rule="nonzero" group-id="2,11" node-id="401" stroke="none" target-height="17.399994" target-width="29.799988" target-x="352.5" target-y="320.7"></path><path d="M 302.70 356.20 C 302.70 364.26 298.04 370.80 292.30 370.80 C 286.56 370.80 281.90 364.26 281.90 356.20 C 281.90 348.14 286.56 341.60 292.30 341.60 C 298.04 341.60 302.70 348.14 302.70 356.20 Z" fill="#c74b1b" fill-rule="nonzero" group-id="2,11,32,43" node-id="407" stroke="none" target-height="29.199982" target-width="20.800018" target-x="281.9" target-y="341.6"></path><path d="M 292.10 358.00 C 288.60 358.00 285.50 360.50 283.60 364.20 C 285.50 368.30 288.70 371.00 292.40 371.00 C 295.90 371.00 299.00 368.50 300.90 364.80 C 299.00 360.70 295.70 358.00 292.10 358.00 Z" fill="#ec7018" fill-rule="nonzero" group-id="2,11,32,43" node-id="409" stroke="none" target-height="13" target-width="17.299988" target-x="283.6" target-y="358"></path><path d="M 301.20 329.40 C 301.20 335.36 297.13 340.20 292.10 340.20 C 287.07 340.20 283.00 335.36 283.00 329.40 C 283.00 323.44 287.07 318.60 292.10 318.60 C 297.13 318.60 301.20 323.44 301.20 329.40 Z" fill="url(#SVGID_17_)" fill-rule="nonzero" group-id="2,11,32,44" node-id="414" stroke="none" target-height="21.600006" target-width="18.200012" target-x="283" target-y="318.6"></path><path d="M 313.70 345.20 C 313.70 349.00 310.40 353.40 306.40 354.10 C 298.40 355.50 292.10 349.60 292.10 349.60 C 292.10 349.60 284.60 354.90 279.10 354.40 C 273.80 353.90 271.10 349.50 271.10 345.30 C 271.10 337.60 280.60 331.40 292.40 331.40 C 304.20 331.40 313.70 337.50 313.70 345.20 Z" fill="#ffffff" fill-rule="nonzero" group-id="2,11,32,44" node-id="416" stroke="none" target-height="24.100006" target-width="42.600006" target-x="271.1" target-y="331.4"></path><path d="M 300.90 332.40 C 298.30 331.70 295.50 331.30 292.50 331.30 C 289.30 331.30 286.20 331.80 283.40 332.60 C 284.60 337.00 288.00 340.20 292.10 340.20 C 296.30 340.20 299.80 336.90 300.90 332.40 Z" fill="#803b20" fill-rule="nonzero" group-id="2,11,32,44" node-id="418" stroke="none" target-height="8.900024" target-width="17.5" target-x="283.4" target-y="331.3"></path><path d="M 287.40 352.50 C 287.40 354.21 286.64 355.60 285.70 355.60 C 284.76 355.60 284.00 354.21 284.00 352.50 C 284.00 350.79 284.76 349.40 285.70 349.40 C 286.64 349.40 287.40 350.79 287.40 352.50 Z" fill="#ffffff" fill-rule="nonzero" group-id="2,11,32" node-id="421" stroke="none" target-height="6.200012" target-width="3.399994" target-x="284" target-y="349.4"></path><path d="M 299.70 355.80 C 298.80 355.80 298.00 354.40 298.00 352.70 C 298.00 351.00 298.80 349.60 299.70 349.60 C 300.60 349.60 301.40 351.00 301.40 352.70 C 301.40 354.40 300.70 355.80 299.70 355.80" fill="#ffffff" fill-rule="nonzero" group-id="2,11,32" node-id="423" stroke="none" target-height="6.1999817" target-width="3.399994" target-x="298" target-y="349.6"></path><path d="M 322.70 331.70 C 322.70 331.70 323.40 314.70 337.80 309.70 C 337.80 309.70 352.10 307.00 360.10 315.70 C 360.10 315.70 336.60 316.60 322.70 331.70 Z" fill="#6f2526" fill-rule="nonzero" group-id="2,11,33" node-id="428" stroke="none" target-height="24.700012" target-width="37.399994" target-x="322.7" target-y="307"></path><path d="M 323.00 331.70 L 331.20 324.80 C 336.10 320.70 342.10 318.20 348.40 317.80 L 359.70 317.00" fill="none" group-id="2,11,33" node-id="430" stroke="#795629" stroke-linecap="round" stroke-width="2" target-height="14.700012" target-width="36.700012" target-x="323" target-y="317"></path></g><g node-id="515"><path d="M 311.10 395.60 C 311.10 395.60 333.40 393.00 338.20 388.80 L 348.20 379.30 L 372.20 358.90 L 398.80 339.00 L 408.30 334.70 C 408.30 334.70 409.50 335.90 412.40 334.70 L 412.40 395.60 C 412.40 395.60 405.40 407.70 380.90 413.50 C 380.90 413.50 366.60 418.30 347.70 419.30 C 347.70 419.30 340.90 422.40 346.20 436.70 C 346.20 436.70 354.00 460.20 368.00 473.00 C 368.00 473.00 391.00 497.30 423.30 510.10 C 423.30 510.10 413.10 526.80 393.30 530.90 C 393.30 530.90 377.30 533.80 360.40 530.20 C 360.40 530.20 340.80 527.60 320.20 469.90 C 320.30 469.80 308.40 453.10 311.10 395.60 Z" fill="#ebe7da" fill-rule="nonzero" group-id="2,12" node-id="436" stroke="none" target-height="199.09998" target-width="114.899994" target-x="308.4" target-y="334.7"></path><g node-id="537"><path d="M 344.15 486.20 L 364.47 468.88 L 371.80 477.48 L 351.48 494.80 Z" fill="#dfd9ca" fill-rule="nonzero" group-id="2,12,34" node-id="440" stroke="#e1dfdc" stroke-linecap="butt" stroke-width="0.9999663" target-height="25.919586" target-width="27.648987" target-x="344.14673" target-y="468.87668"></path></g><path d="M 309.80 395.40 L 332.80 390.30 L 323.10 415.00 L 334.70 426.70 C 334.70 426.70 323.80 443.40 323.00 476.10 C 322.90 476.10 308.40 449.80 309.80 395.40 Z" fill="#e2dfcf" fill-rule="nonzero" group-id="2,12" node-id="443" stroke="none" target-height="85.80002" target-width="26.300018" target-x="308.4" target-y="390.3"></path></g><g node-id="516"><g node-id="538"><g node-id="548"><path d="M 443.20 287.70 L 411.70 287.70 C 409.50 287.70 407.80 285.90 407.80 283.80 L 407.80 283.80 C 407.80 282.30 409.00 281.20 410.40 281.20 L 444.50 281.20 C 446.00 281.20 447.10 282.40 447.10 283.80 L 447.10 283.80 C 447.20 285.90 445.40 287.70 443.20 287.70 Z" fill="#68a1d6" fill-opacity="0.52" fill-rule="nonzero" group-id="2,13,35,45" node-id="452" stroke="none" target-height="6.5" target-width="39.400024" target-x="407.8" target-y="281.2"></path></g><g node-id="549"><path d="M 427.70 408.00 L 427.70 408.00 C 418.90 408.00 411.70 400.80 411.70 392.00 L 411.70 287.70 L 443.70 287.70 L 443.70 392.00 C 443.70 400.90 436.50 408.00 427.70 408.00 Z" fill="#94abc7" fill-opacity="0.51" fill-rule="nonzero" group-id="2,13,35,46" node-id="457" stroke="none" target-height="120.29999" target-width="32" target-x="411.7" target-y="287.7"></path></g><path d="M 442.10 307.10 L 442.10 393.60 C 442.10 400.40 435.80 405.80 428.00 405.80 C 420.20 405.80 413.90 400.30 413.90 393.60 L 413.90 305.90 C 415.60 307.90 423.00 315.10 439.20 307.10 L 442.10 307.10 Z" fill="#bd84b7" fill-rule="nonzero" group-id="2,13,35" node-id="460" stroke="none" target-height="99.899994" target-width="28.200012" target-x="413.9" target-y="305.9"></path><path d="M 439.90 309.70 L 439.90 392.30 C 439.90 398.80 434.70 404.00 428.20 404.00 C 421.70 404.00 416.50 398.80 416.50 392.30 L 416.50 308.60 C 417.90 310.50 424.00 317.40 437.40 309.70 L 439.90 309.70 Z" fill="#c896c1" fill-rule="nonzero" group-id="2,13,35" node-id="462" stroke="none" target-height="95.399994" target-width="23.399994" target-x="416.5" target-y="308.6"></path><path d="M 435.30 384.00 C 435.30 385.82 433.60 387.30 431.50 387.30 C 429.40 387.30 427.70 385.82 427.70 384.00 C 427.70 382.18 429.40 380.70 431.50 380.70 C 433.60 380.70 435.30 382.18 435.30 384.00 Z" fill="#bb79b0" fill-rule="nonzero" group-id="2,13,35" node-id="464" stroke="none" target-height="6.5999756" target-width="7.5999756" target-x="427.7" target-y="380.7"></path><path d="M 425.10 393.90 C 425.10 394.89 424.16 395.70 423.00 395.70 C 421.84 395.70 420.90 394.89 420.90 393.90 C 420.90 392.91 421.84 392.10 423.00 392.10 C 424.16 392.10 425.10 392.91 425.10 393.90 Z" fill="#bb79b0" fill-rule="nonzero" group-id="2,13,35" node-id="466" stroke="none" target-height="3.600006" target-width="4.200012" target-x="420.9" target-y="392.1"></path><path d="M 423.50 377.40 C 423.50 378.28 422.65 379.00 421.60 379.00 C 420.55 379.00 419.70 378.28 419.70 377.40 C 419.70 376.52 420.55 375.80 421.60 375.80 C 422.65 375.80 423.50 376.52 423.50 377.40 Z" fill="#bb79b0" fill-rule="nonzero" group-id="2,13,35" node-id="468" stroke="none" target-height="3.2000122" target-width="3.7999878" target-x="419.7" target-y="375.8"></path><path d="M 431.50 392.10 C 431.50 392.93 430.69 393.60 429.70 393.60 C 428.71 393.60 427.90 392.93 427.90 392.10 C 427.90 391.27 428.71 390.60 429.70 390.60 C 430.69 390.60 431.50 391.27 431.50 392.10 Z" fill="#d2d2d3" fill-rule="nonzero" group-id="2,13,35" node-id="470" stroke="none" target-height="3" target-width="3.600006" target-x="427.9" target-y="390.6"></path><path d="M 417.70 395.00 L 417.80 395.00 C 418.40 395.00 418.80 394.50 418.80 394.00 L 418.80 298.50 C 418.80 297.90 418.30 297.50 417.80 297.50 L 417.70 297.50 C 417.10 297.50 416.70 298.00 416.70 298.50 L 416.70 394.00 C 416.60 394.50 417.10 395.00 417.70 395.00 Z" fill="#ffffff" fill-opacity="0.61" fill-rule="nonzero" group-id="2,13,35,47" node-id="474" stroke="none" target-height="97.5" target-width="2.1999817" target-x="416.6" target-y="297.5"></path></g><g node-id="539"><path d="M 421.40 334.00 C 417.40 339.30 411.10 341.20 407.10 338.30 C 403.10 335.40 403.20 328.70 407.20 323.40 C 411.20 318.10 417.50 316.20 421.50 319.10 C 425.40 322.00 425.40 328.60 421.40 334.00 Z" fill="url(#SVGID_19_)" fill-rule="nonzero" group-id="2,13,36" node-id="480" stroke="none" target-height="25" target-width="22.299988" target-x="403.1" target-y="316.2"></path><path d="M 446.30 380.70 L 444.40 380.70 C 430.90 380.70 419.90 369.70 419.90 356.20 L 419.90 348.60 C 419.90 335.10 430.90 324.10 444.40 324.10 L 446.30 324.10 C 455.40 324.10 462.90 331.50 462.90 340.70 L 462.90 364.10 C 462.80 373.30 455.40 380.70 446.30 380.70 Z" fill="url(#SVGID_21_)" fill-rule="nonzero" group-id="2,13,36" node-id="482" stroke="none" target-height="56.600006" target-width="43" target-x="419.9" target-y="324.1"></path></g></g></g><g node-id="506"><g node-id="517"><g node-id="540"><path d="M 2609.00 1127.40 C 2606.10 1126.60 2604.20 1121.30 2603.20 1111.50 C 2596.10 1105.90 2593.10 1101.80 2594.10 1099.00 C 2595.10 1096.20 2600.20 1094.80 2609.20 1094.80 C 2613.50 1088.10 2617.10 1085.20 2620.00 1086.00 C 2623.00 1086.90 2625.00 1091.40 2626.20 1099.80 C 2634.30 1104.40 2637.80 1108.30 2636.60 1111.40 C 2635.40 1114.50 2630.30 1116.30 2621.30 1116.80 C 2615.90 1124.70 2611.80 1128.30 2609.00 1127.40 Z" fill="#f2d435" fill-rule="evenodd" group-id="3,14,37" node-id="493" stroke="none" target-height="43.100098" target-width="44.69995" target-x="2593.1" target-y="1085.2"></path></g><g clip-path="url(#SVGID_23_)" group-id="3,14,38" node-id="500"><path d="M 74.97 6730.78 L 1898.25 494.19 L 2837.80 768.87 L 1014.52 7005.46 Z" fill="#f2d435" fill-rule="nonzero" group-id="3,14,38,48,50" node-id="502" stroke="none" target-height="6511.2676" target-width="2762.8306" target-x="74.970215" target-y="494.1902"></path></g></g></g></svg>