<?xml version="1.0" standalone="no"?><!DOCTYPE svg PUBLIC "-//W3C//DTD SVG 1.1//EN" "http://www.w3.org/Graphics/SVG/1.1/DTD/svg11.dtd"><svg t="1711365857694" class="icon" viewBox="0 0 1024 1024" version="1.1" xmlns="http://www.w3.org/2000/svg" p-id="2422" xmlns:xlink="http://www.w3.org/1999/xlink" width="200" height="200"><path d="M352.8192 874.8032c13.8752 40.7552 27.7504 81.5104 41.728 122.2656 4.6592 13.6192 3.584 15.4624-11.1616 15.5648-26.4704 0.1536-52.992-0.256-79.4624 0.1536-10.9568 0.1536-15.4624-3.9936-17.6128-15.104-15.4624-80.0256-22.3744-160.5632-17.6128-242.0224 0.9728-17.1008 9.5744-31.0272 19.9168-42.8032 20.8384-23.7056 44.1344-45.2608 65.28-68.7104 6.0928-6.7072 9.8304-16.4864 12.0832-25.4976 7.0144-28.5696 7.4752-56.32-14.4896-80.0256-3.0208-3.2768-4.0448-8.3968-5.9392-12.6976-6.4512-14.7456-13.1072-28.5696-26.4704-39.6288-16.6912-13.8752-24.4224-34.2016-23.1936-56.1152 0.4608-8.704 3.84-20.0192 9.984-25.0368 9.0112-7.3216 9.7792-14.7456 9.2672-24.3712-0.768-13.6192-0.6144-27.3408-1.7408-40.96-1.0752-12.8512 3.9424-22.4256 15.4112-26.624 25.4976-9.4208 50.8416-20.6336 77.2608-25.6512 77.9776-14.6944 156.3648-13.9264 233.728 4.9664 19.6096 4.8128 38.0928 14.4896 56.7296 22.6816 9.0624 3.9424 12.544 11.7248 11.8272 22.016-1.1776 17.0496-1.7408 34.1504-1.8944 51.2-0.0512 3.7376 1.3824 9.1648 4.0448 10.9056 15.1552 10.0352 17.5104 24.8832 15.5136 40.6528-2.6624 21.0432-12.3904 38.6048-28.8256 52.6848-5.8368 5.0176-10.3936 12.032-14.2336 18.8928a1167.36 1167.36 0 0 0-27.4432 51.9168c-2.4576 4.9664-3.7888 10.9568-3.9424 16.5376-1.1264 37.5296 11.1616 68.7616 42.24 92.0064 11.52 8.6016 20.5824 20.4288 30.8736 30.6688 18.9952 18.9952 29.4912 40.7552 30.208 68.7104 2.048 77.2608-5.1712 153.4976-20.5312 229.12-1.6384 7.9872-5.3248 12.0832-13.6192 12.032-27.3408-0.2048-54.6816 0.1536-82.0224-0.512-14.7456-0.3584-15.4624-2.2016-10.8032-16.0768 11.4176-33.9968 22.8352-67.9424 34.0992-101.9904 1.6896-5.12 2.4064-10.5472 0.8192-16.8448-1.792 4.4032-3.7888 8.8064-5.3248 13.312-12.4928 36.3008-25.0368 72.6016-37.1712 109.056-2.816 8.448-7.1168 12.8-16.4352 12.4928-13.2096-0.4096-26.5216 0.8704-39.6288-0.3584-4.352-0.4096-10.6496-5.632-11.8272-9.7792-8.6528-31.232-16.3328-62.7712-24.0128-94.2592-0.9728-3.9424-1.7408-9.4208 0.2048-12.3904 7.7312-11.7248 3.4816-21.7088-2.3552-32.256-5.12-9.216-9.3696-18.944-15.4112-31.3856-8.0896 17.2544-15.104 32.1536-21.9648 47.104-0.512 1.0752-0.8192 2.7648-0.3584 3.7376 11.3664 23.0912-1.3824 44.1344-5.632 65.792-3.4816 17.5616-8.704 34.7648-12.3904 52.3264-1.8432 8.8064-6.5024 12.2368-15.0528 12.0832-12.8-0.2048-25.6512-0.1536-38.4512-0.1536-7.7824 0-12.4416-3.1744-15.0016-11.008-12.2368-37.2736-24.832-74.4448-37.5296-111.616-1.9968-5.8368-5.1712-11.264-7.8336-16.896-1.28 0.768-2.56 1.3312-3.84 1.8944z m-38.4-454.656c-6.6048 21.4528 2.56 44.544 21.7088 61.184 6.0928 5.2736 11.9808 12.288 14.6944 19.712 22.2208 61.2352 66.2528 99.584 125.2352 123.8016 24.4736 10.0352 47.5136 11.0592 71.168-0.7168 10.7008-5.3248 21.9136-9.6768 32.3584-15.4624 38.656-21.2992 67.7888-51.7632 84.4288-92.8256 6.2976-15.5648 12.6464-29.3888 26.9824-40.1408 17.2544-12.9536 22.6816-35.8912 15.5648-53.6064-5.9904 9.0624-11.52 17.408-16.9984 25.7024-3.0208-4.9664-3.1744-8.6016-3.0208-12.1856 1.792-31.488 4.096-63.0272 4.9664-94.5664 0.1536-5.3248-4.5568-13.3632-9.216-15.7696-13.568-6.912-27.904-13.1584-42.6496-16.7936-68.352-16.8448-137.6768-18.176-207.2064-9.472-31.2832 3.9424-62.464 9.1648-90.9312 24.5248-8.4992 4.608-12.7488 9.8816-12.032 20.0192 2.0992 29.7984 3.4816 59.5968 5.0688 89.4464 0.256 4.352 0.0512 8.7552 0.0512 13.1584-1.2288 0.3584-2.4576 0.768-3.7376 1.1264-5.2736-8.704-10.5472-17.4592-16.4352-27.136z m321.8432 167.5264c-4.6592 2.6624-5.9392 3.072-6.8096 3.9424-31.3344 30.208-69.888 46.7968-110.9504 58.6752-3.8912 1.1264-8.6016 1.6384-12.4416 0.6144-36.1984-9.728-70.144-24.2688-100.1472-47.104-6.5536-4.9664-12.4928-10.7008-20.6336-17.7152-1.28 11.52-2.3552 20.3264-3.2768 29.0816-3.072 29.696-6.4512 59.3408-8.6528 89.1392-0.3584 5.0176 3.3792 13.0048 7.5264 15.2576 40.192 21.6576 80.7936 42.5472 121.6 63.0784 4.4544 2.2528 11.9296 2.56 16.2816 0.3584 36.2496-18.176 71.5264-38.4512 108.3392-55.2448 18.432-8.3968 24.3712-18.7392 21.504-38.0416-4.864-33.1264-8.1408-66.5088-12.3392-102.0416z m-277.248 79.6672c-14.0288 12.6464-26.6752 24.9856-40.2944 36.1472-18.5344 15.1552-27.7504 34.5088-31.3856 57.8048-1.5872 10.0352 0 16.5888 6.9632 23.8592 30.6688 32.0512 60.672 64.768 91.0336 97.1264 17.7152 18.8928 35.584 37.6832 54.9888 58.2656 22.8864-46.592 44.8512-91.4432 67.2768-137.0624-6.5024-3.6352-11.264-6.4-16.128-8.9088-40.0896-20.8896-79.9744-42.1376-120.4224-62.3616-11.8272-5.9392-15.9744-13.1584-14.1312-26.1632 1.8432-12.7488 1.4848-25.856 2.0992-38.7072z m303.4112-3.1232c0.9216 14.8992 1.5872 26.5728 2.304 38.2464 1.3824 22.0672 1.2288 21.76-18.6368 31.9488-40.192 20.6848-80.2304 41.6768-120.2176 62.6688-5.7856 3.072-12.4928 5.2224-7.424 15.1552 19.5584 38.4 38.2464 77.2096 57.344 115.8144 1.7408 3.5328 4.2496 6.6048 6.2976 9.728 2.4064-1.1776 3.3792-1.3312 3.8912-1.9456 49.1008-52.224 98.2016-104.448 146.9952-156.9792 2.56-2.7648 3.2256-8.6016 2.6112-12.6464-3.6352-22.9376-9.7792-44.3392-29.6448-60.0064-14.7456-11.6736-27.2896-26.1632-43.52-41.984z" p-id="2423" fill="#000000"></path><path d="M314.5216 314.7776c-3.072-18.2272-6.1952-33.9456-8.3456-49.8176-5.6832-42.2912-13.8752-84.5824-6.4-127.3856 7.5776-43.1104 26.2144-78.5408 71.1168-93.696 98.304-33.0752 195.9936-33.5872 292.9152 5.632 20.48 8.2944 33.8944 24.1152 43.6736 43.2128 11.264 22.016 18.5856 45.7216 16.7936 70.2464-3.3792 45.9264-9.0624 91.648-13.9776 137.4208-0.4096 4.0448-2.1504 7.936-3.6864 13.312-60.7232-38.8608-128.0512-43.1104-195.6352-42.9568-67.1744 0.2048-134.2976 3.6864-196.4544 44.032z m176.0768-104.7552c6.5024-1.6896 13.824-5.0688 21.1968-5.0688 7.7824 0 15.7184 4.9664 23.3472 4.3008 4.5568-0.3584 11.264-6.656 12.3904-11.3664 3.8912-16.384-25.3952-44.4928-40.2944-37.4784-11.776 5.5808-22.528 16.4352-29.8496 27.4944-6.656 10.2912 1.4336 21.9136 13.2096 22.1184z m23.5008-91.648c5.7344 7.424 9.8304 12.7488 13.9776 18.1248 3.3792-6.144 9.0112-12.1856 9.3184-18.4832 0.256-4.7104-6.4-9.7792-9.984-14.6432-3.84 4.2496-7.6288 8.5504-13.312 15.0016z m-4.9152 0.1024c-4.3008-6.0416-6.9632-13.8752-10.8544-14.5408-9.4208-1.5872-12.9024 7.0144-11.5712 14.2848 1.1776 6.5536 6.5024 12.3392 10.0352 18.432 3.7376-5.4784 7.4752-11.008 12.3904-18.176z m52.992 32c-5.1712-5.6832-8.6016-9.472-12.0832-13.312-4.2496 5.3248-10.496 10.1888-11.9808 16.2304-0.768 3.1232 6.9632 8.2944 10.8544 12.544 3.9424-4.5568 7.7824-9.1136 13.2096-15.4624z m-102.2976 1.3824c4.864 5.5808 8.6016 9.8304 12.3392 14.08 4.0448-4.096 12.1856-9.5232 11.3664-12.032-1.9968-6.2976-8.0896-11.264-12.544-16.7936-3.2768 4.3008-6.5024 8.6016-11.1616 14.7456zM261.6832 747.9296c0.3584 4.352 1.024 7.68 0.8704 10.9568-3.584 80.128 3.0208 159.488 18.2784 238.1824 2.7136 14.08 1.3312 15.5648-13.056 15.5648-67.4816 0.1024-134.9632-0.1024-202.496 0.1536-11.008 0.0512-16.0768-3.6352-16.5888-15.36-2.1504-52.1728 8.96-100.9152 36.0448-145.7664 2.5088-4.1472 6.2464-8.2944 10.3936-10.7008 53.5552-30.8736 107.264-61.4912 161.024-92.1088 1.024-0.512 2.4576-0.4096 5.5296-0.9216zM759.8592 746.0352c20.6336 12.9536 38.5024 25.088 57.2928 35.6864 33.792 19.0976 68.3008 36.864 101.9904 56.1152 7.9872 4.5568 15.7184 11.776 20.3264 19.6608 24.9856 43.1616 35.84 89.9072 33.9456 139.8272-0.4096 10.8544-4.1984 15.4112-15.104 15.36-67.8912-0.2048-135.7824-0.2048-203.6224 0-11.4176 0.0512-16.384-3.4304-13.7216-15.872 16.9472-78.4896 21.4016-157.952 17.8176-237.9776-0.2048-3.2256 0.512-6.5536 1.0752-12.8zM592.0768 413.6448h-20.48c-26.4704 0.0512-39.7312-11.3664-43.776-37.4784-2.2528-14.6944-5.2224-16.9984-19.5072-16.3328-7.936 0.3584-12.6464 3.0208-13.312 11.8784-1.1264 14.1312-5.7344 27.1872-18.7904 34.6112-6.4 3.6352-14.08 6.656-21.2992 6.9632-20.8896 0.9216-41.8816 1.024-62.7712-0.0512-6.4-0.3072-14.1312-3.9936-18.5344-8.6528-17.152-18.176-20.0192-46.1824-7.0144-67.6864 2.7136-4.4544 9.6256-8.8576 14.7456-9.0112 29.44-0.8704 58.9312-0.9728 88.3712 0.0512 5.9904 0.2048 14.08 4.9664 17.0496 10.0352 4.5568 7.7824 8.96 10.2912 17.2544 7.9872 2.7648-0.768 6.0928-0.8704 8.9088-0.2048 11.264 2.4576 19.5072 0.6144 23.7056-11.9296 1.024-3.0208 7.424-5.9392 11.3664-6.0416 30.7712-0.512 61.4912-0.6144 92.2624 0.0512 4.7104 0.1024 10.752 3.3792 13.824 7.1168 12.9024 15.9232 11.3664 49.4592-2.304 64.768-7.9872 9.0112-17.6128 14.592-30.2592 14.0288-9.7792-0.4608-19.6096-0.1024-29.44-0.1024zM426.5984 342.1696c-11.0592-0.0512-22.2208 0.768-33.2288-0.256-12.8512-1.1776-18.5344 5.3248-19.3024 16.4864-0.512 7.424 0.4096 15.36 2.4064 22.5792 3.5328 12.6976 11.1104 20.0704 26.0608 18.688 13.9264-1.28 28.1088-0.256 42.1376-0.256 27.5456 0 41.4208-19.2 33.4848-46.0288-2.2016-7.4752-6.0928-11.6224-14.4896-11.3152-12.3392 0.4096-24.7296 0.1024-37.0688 0.1024z m166.5024 57.2416c8.96 0 17.92-0.1536 26.88 0.0512 12.1856 0.256 21.4528-5.4272 24.4224-16.6912 2.5088-9.472 1.792-19.968 1.4336-29.952-0.3072-7.5776-5.4272-10.752-13.1584-10.7008-24.7296 0.2048-49.5104-0.0512-74.24 0.2048-3.5328 0.0512-8.7552 0.9216-10.2912 3.2768-8.192 12.4928-6.912 25.6512-1.4848 39.0656 4.4032 10.8544 11.2128 16.3328 23.4496 14.8992 7.5264-0.8704 15.3088-0.1536 22.9888-0.1536z" p-id="2424" fill="#000000"></path></svg>