<?xml version="1.0" standalone="no"?><!DOCTYPE svg PUBLIC "-//W3C//DTD SVG 1.1//EN" "http://www.w3.org/Graphics/SVG/1.1/DTD/svg11.dtd"><svg t="1713928398430" class="icon" viewBox="0 0 1024 1024" version="1.1" xmlns="http://www.w3.org/2000/svg" p-id="1740" xmlns:xlink="http://www.w3.org/1999/xlink" width="200" height="200"><path d="M767.110747 202.547089l-115.571179 0 0-51.889811-75.40641 0c-7.16826-29.862121-34.079166-52.129264-66.109674-52.129264s-58.941414 22.267143-66.109674 52.129264l-75.40641 0 0 51.889811-120.28862 0c-18.86772 0-33.021068 18.868743-33.021068 37.737486l0 584.870658c0 18.868743 18.868743 37.737486 37.737486 37.737486l514.176572 0c18.86772 0 37.736463-18.86772 37.736463-37.737486l0-584.870658C804.84721 221.415832 785.978467 202.547089 767.110747 202.547089zM510.022461 128.041188c21.220301 0 38.4845 17.265222 38.4845 38.485523s-17.264199 38.4845-38.4845 38.4845-38.485523-17.264199-38.485523-38.4845S488.80216 128.041188 510.022461 128.041188zM401.526421 188.395788l44.125987 0c9.128915 26.795273 34.526351 46.12962 64.370053 46.12962s55.240115-19.335371 64.370053-46.12962l44.125987 0 0 70.75753-216.993103 0L401.525398 188.395788zM762.392282 792.134165c0 14.151301-14.151301 28.303626-28.30158 28.303626l-452.852902 0c-14.152325 0-28.303626-14.152325-28.303626-28.303626L252.934175 273.304619c0-14.151301 14.151301-28.303626 28.303626-28.303626l87.267553 0 0 47.172369 283.033191 0 0-51.889811 82.552158 0c14.150278 0 28.30158 14.152325 28.30158 28.303626L762.392282 792.134165z" fill="#1296DB" p-id="1741"></path><path d="M475.715097 537.359574 544.328801 537.359574 544.328801 465.528596 616.160803 465.528596 616.160803 396.913868 544.328801 396.913868 544.328801 325.08289 475.715097 325.08289 475.715097 396.913868 403.885142 396.913868 403.885142 465.528596 475.715097 465.528596Z" fill="#1296DB" p-id="1742"></path><path d="M635.029546 594.012875l-250.01417 0c-9.431813 0-18.86772 9.43386-18.86772 18.86772l0 4.717442c0 9.43386 9.43693 18.86772 18.86772 18.86772l245.294682 0c9.43693 0 18.869766-4.716418 23.588231-18.86772l0-4.717442C653.898289 603.445712 644.463406 594.012875 635.029546 594.012875z" fill="#1296DB" p-id="1743"></path><path d="M635.029546 660.052964l-250.01417 0c-9.431813 0-18.86772 9.434883-18.86772 18.868743l0 4.716418c0 9.434883 9.43693 18.868743 18.86772 18.868743l245.294682 0c9.43693 0 18.869766-4.717442 23.588231-18.868743l0-4.716418C653.898289 669.486824 644.463406 660.052964 635.029546 660.052964z" fill="#1296DB" p-id="1744"></path><path d="M635.029546 730.810494l-250.01417 0c-9.431813 0-18.86772 9.434883-18.86772 18.868743l0 4.716418c0 9.434883 9.43693 14.151301 18.86772 14.151301l245.294682 0c9.43693 0 18.869766-4.716418 23.588231-14.151301l0-4.716418C653.898289 740.245378 644.463406 730.810494 635.029546 730.810494z" fill="#1296DB" p-id="1745"></path></svg>