<?xml version="1.0" standalone="no"?><!DOCTYPE svg PUBLIC "-//W3C//DTD SVG 1.1//EN" "http://www.w3.org/Graphics/SVG/1.1/DTD/svg11.dtd"><svg t="1712557720149" class="icon" viewBox="0 0 1024 1024" version="1.1" xmlns="http://www.w3.org/2000/svg" p-id="1787" xmlns:xlink="http://www.w3.org/1999/xlink" width="200" height="200"><path d="M0 0h1024v1024H0z" fill="#1296db" opacity=".01" p-id="1788"></path><path d="M409.6 34.133333a34.133333 34.133333 0 1 0 0 68.266667h68.266667v35.669333a373.76 373.76 0 0 0-206.165334 85.4016l-25.1904-25.258666 48.264534-48.264534A34.133333 34.133333 0 0 0 246.510933 101.717333L174.08 174.114133 101.717333 246.442667a34.133333 34.133333 0 0 0 48.2304 48.298666l48.298667-48.264533 25.224533 25.224533A373.76 373.76 0 0 0 138.069333 477.866667H102.4v-68.266667a34.133333 34.133333 0 1 0-68.266667 0v204.8a34.133333 34.133333 0 1 0 68.266667 0v-68.266667h35.669333a373.76 373.76 0 0 0 85.4016 206.165334l-25.258666 25.1904-48.264534-48.264534a34.133333 34.133333 0 0 0-48.264533 48.264534L174.114133 849.92l72.362667 72.362667a34.133333 34.133333 0 0 0 48.298667-48.2304l-48.264534-48.298667 25.224534-25.224533A373.76 373.76 0 0 0 477.866667 885.930667V921.6h-68.266667a34.133333 34.133333 0 1 0 0 68.266667h204.8a34.133333 34.133333 0 1 0 0-68.266667h-68.266667v-35.669333a373.794133 373.794133 0 0 0 206.165334-85.4016l25.1904 25.258666-48.264534 48.264534a34.133333 34.133333 0 1 0 48.264534 48.264533l72.430933-72.430933 72.362667-72.362667a34.133333 34.133333 0 0 0-48.2304-48.298667l-48.298667 48.264534-25.224533-25.224534A373.794133 373.794133 0 0 0 885.930667 546.133333H921.6v68.266667a34.133333 34.133333 0 1 0 68.266667 0v-204.8a34.133333 34.133333 0 1 0-68.266667 0v68.266667h-35.669333a373.76 373.76 0 0 0-85.4016-206.165334l25.258666-25.1904 48.264534 48.264534a34.133333 34.133333 0 1 0 48.264533-48.264534L849.885867 174.08l-72.362667-72.362667a34.133333 34.133333 0 1 0-48.298667 48.2304l48.264534 48.298667-25.224534 25.224533A373.76 373.76 0 0 0 546.133333 138.069333V102.4h68.266667a34.133333 34.133333 0 1 0 0-68.266667h-204.8z m409.6 477.866667a307.2 307.2 0 1 1-614.4 0 307.2 307.2 0 0 1 614.4 0z m-204.8-136.533333a68.266667 68.266667 0 1 0 0 136.533333 68.266667 68.266667 0 0 0 0-136.533333z m-136.533333 68.266666a136.533333 136.533333 0 1 1 273.066666 0 136.533333 136.533333 0 0 1-273.066666 0z m-68.266667 136.533334a34.133333 34.133333 0 1 0 0 68.266666 34.133333 34.133333 0 0 0 0-68.266666z m-102.4 34.133333a102.4 102.4 0 1 1 204.8 0 102.4 102.4 0 0 1-204.8 0z" fill="#1296db" p-id="1789"></path></svg>