<?xml version="1.0" standalone="no"?><!DOCTYPE svg PUBLIC "-//W3C//DTD SVG 1.1//EN" "http://www.w3.org/Graphics/SVG/1.1/DTD/svg11.dtd"><svg t="1712668383980" class="icon" viewBox="0 0 1024 1024" version="1.1" xmlns="http://www.w3.org/2000/svg" p-id="11610" xmlns:xlink="http://www.w3.org/1999/xlink" width="200" height="200"><path d="M673.4848 72.96H324.6592a221.5424 221.5424 0 0 0-221.5424 221.5424v414.1056a221.5424 221.5424 0 0 0 221.5424 221.5424h179.968a278.272 278.272 0 0 1 390.4-394.24V294.5024a221.5424 221.5424 0 0 0-221.5424-221.5424z m-215.04 389.12H288.7168a40.96 40.96 0 1 1 0-81.92h169.472a40.96 40.96 0 1 1 0 81.92z m184.6272-166.1952H288.7168a40.96 40.96 0 0 1 0-81.92h354.0992a40.96 40.96 0 1 1 0 81.92z" fill="#8a8a8a" p-id="11611"></path><path d="M715.7248 537.6A211.0976 211.0976 0 1 0 926.72 748.9024 211.0976 211.0976 0 0 0 715.7248 537.6z m80.1792 262.3488h-92.16a40.96 40.96 0 0 1-40.96-40.96v-94.1056a40.96 40.96 0 1 1 81.92 0v53.3504h51.2a40.96 40.96 0 0 1 0 81.92z" fill="#8a8a8a" p-id="11612"></path><path d="M673.4848 72.96H324.6592a221.5424 221.5424 0 0 0-221.5424 221.5424v414.1056a228.9152 228.9152 0 0 0 1.792 27.9552 524.7488 524.7488 0 0 0 335.0016 49.408 278.272 278.272 0 0 1 379.8016-295.2192 525.5168 525.5168 0 0 0 38.6048-318.3104 221.184 221.184 0 0 0-184.832-99.4816z m-215.04 389.12H288.7168a40.96 40.96 0 1 1 0-81.92h169.472a40.96 40.96 0 1 1 0 81.92z m184.6272-166.1952H288.7168a40.96 40.96 0 0 1 0-81.92h354.0992a40.96 40.96 0 1 1 0 81.92z" fill="#8a8a8a" p-id="11613"></path><path d="M504.6272 748.9024c0 6.8608 0.3584 13.7216 1.024 20.48a524.6976 524.6976 0 0 0 156.9792-82.4832v-21.9648a40.96 40.96 0 0 1 62.7712-34.6624 523.6224 523.6224 0 0 0 62.0032-79.9232 211.2 211.2 0 0 0-282.7776 198.6048z" fill="#8a8a8a" p-id="11614"></path><path d="M324.6592 72.96a221.5424 221.5424 0 0 0-221.5424 221.5424v266.8032a421.376 421.376 0 0 0 586.24-487.7312c-5.12-0.3584-10.5472-0.6144-15.872-0.6144z m133.5296 389.12h-169.472a40.96 40.96 0 1 1 0-81.92h169.472a40.96 40.96 0 1 1 0 81.92z m184.6272-166.1952H288.7168a40.96 40.96 0 0 1 0-81.92h354.0992a40.96 40.96 0 1 1 0 81.92z" fill="#8a8a8a" p-id="11615"></path><path d="M247.7568 254.9248a40.96 40.96 0 0 1 40.96-40.96h212.1728a389.12 389.12 0 0 0 35.84-121.344c0.8192-6.5536 1.4336-13.1072 1.9456-19.6608h-214.016a221.5424 221.5424 0 0 0-221.5424 221.5424V431.616a389.5808 389.5808 0 0 0 144.6912-9.7792v-0.7168a40.96 40.96 0 0 1 40.96-40.96h59.0848a391.7824 391.7824 0 0 0 99.7888-84.2752h-158.72a40.96 40.96 0 0 1-41.1648-40.96z" fill="#8a8a8a" p-id="11616"></path></svg>